<?xml version="1.0" standalone="no"?>
<!DOCTYPE svg PUBLIC "-//W3C//DTD SVG 1.1//EN" "http://www.w3.org/Graphics/SVG/1.1/DTD/svg11.dtd" >
<svg xmlns="http://www.w3.org/2000/svg">
<metadata>
Created by FontForge 20120731 at Tue Jan 20 16:48:44 2015
 By Ads
</metadata>
<defs>
<font id="iconfont" horiz-adv-x="1024" >
  <font-face 
    font-family="iconfont"
    font-weight="500"
    font-stretch="normal"
    units-per-em="1024"
    panose-1="2 0 6 3 0 0 0 0 0 0"
    ascent="812"
    descent="-212"
    x-height="792"
    bbox="34 -148 956 792"
    underline-thickness="50"
    underline-position="-100"
    unicode-range="U+0078-E611"
  />
<missing-glyph horiz-adv-x="374" 
d="M34 0v682h272v-682h-272zM68 34h204v614h-204v-614z" />
    <glyph glyph-name=".notdef" horiz-adv-x="374" 
d="M34 0v682h272v-682h-272zM68 34h204v614h-204v-614z" />
    <glyph glyph-name=".null" horiz-adv-x="0" 
 />
    <glyph glyph-name="nonmarkingreturn" horiz-adv-x="341" 
 />
    <glyph glyph-name="x" unicode="x" horiz-adv-x="1001" 
d="M281 543q-27 -1 -53 -1h-83q-18 0 -36.5 -6t-32.5 -18.5t-23 -32t-9 -45.5v-76h912v41q0 16 -0.5 30t-0.5 18q0 13 -5 29t-17 29.5t-31.5 22.5t-49.5 9h-133v-97h-438v97zM955 310v-52q0 -23 0.5 -52t0.5 -58t-10.5 -47.5t-26 -30t-33 -16t-31.5 -4.5q-14 -1 -29.5 -0.5
t-29.5 0.5h-32l-45 128h-439l-44 -128h-29h-34q-20 0 -45 1q-25 0 -41 9.5t-25.5 23t-13.5 29.5t-4 30v167h911zM163 247q-12 0 -21 -8.5t-9 -21.5t9 -21.5t21 -8.5q13 0 22 8.5t9 21.5t-9 21.5t-22 8.5zM316 123q-8 -26 -14 -48q-5 -19 -10.5 -37t-7.5 -25t-3 -15t1 -14.5
t9.5 -10.5t21.5 -4h37h67h81h80h64h36q23 0 34 12t2 38q-5 13 -9.5 30.5t-9.5 34.5q-5 19 -11 39h-368zM336 498v228q0 11 2.5 23t10 21.5t20.5 15.5t34 6h188q31 0 51.5 -14.5t20.5 -52.5v-227h-327z" />
    <glyph glyph-name="uniE600" unicode="&#xe600;" 
d="M833 194q0 4 -1 8.5t-2.5 8t-4 6.5t-6 6t-7 4.5t-7.5 2.5t-8 1q-15 0 -25.5 -11t-10.5 -26v-1h-1v-144q0 -5 -1 -10t-3.5 -9t-6 -7.5t-7.5 -5.5t-8.5 -3.5t-9.5 -1.5h-109v0h-1q-15 0 -25.5 -11t-10.5 -26t10.5 -26t25.5 -11h1v0h127q38 0 64.5 27t26.5 65v163v1v0z
M907 317l-319 325q-13 13 -30 20t-34.5 7t-34.5 -7t-30 -20l-320 -326h1q-12 -11 -12 -26q0 -16 11 -26.5t26 -10.5q8 0 15 3t12 9l20 21v-92v-1v-163q0 -25 12.5 -46t33.5 -33.5t46 -12.5h129q14 1 24.5 11.5t10.5 25.5v146h146q10 0 18.5 4.5t13.5 13t5 18.5t-5 18.5
t-13.5 13.5t-18.5 5h-182q-5 0 -9 -1t-7.5 -3t-6.5 -4.5t-5.5 -5.5t-4.5 -6.5t-3 -8t-1 -8.5v-145h-73q-15 0 -25.5 11t-10.5 26v144h-1v1v146q0 8 -4 16l217 221q7 7 16 9.5t18.5 0t16.5 -9.5l306 -312q5 -6 12 -9t15 -3t14.5 3t11.5 7.5t8 11.5t3 15q0 16 -12 27z" />
    <glyph glyph-name="uniE601" unicode="&#xe601;" 
d="M516 682q-60 0 -111 -29.5t-81 -81t-30 -111.5q0 -36 11.5 -70.5t32.5 -62t49 -47.5q-87 -38 -141 -118.5t-54 -179.5q1 -13 11 -22.5t24 -9.5q6 0 12.5 2.5t11 7t7.5 10.5t3 12v2v1v0q0 65 30 121t82 91.5t116 42.5q7 -1 13.5 -1.5t13.5 -0.5q92 0 157 65t65 157
t-65 157t-157 65zM516 307q-63 0 -108 45t-45 108q0 32 12 60.5t32.5 49t49 32.5t59.5 12q64 0 109 -45t45 -109q0 -41 -20.5 -76.5t-56 -56t-77.5 -20.5zM840 -15v1v1q-2 130 -94 223q-4 5 -10.5 8t-13.5 3q-14 0 -24 -9.5t-10 -23.5q0 -7 3 -13t7 -11q35 -35 54 -81.5
t19 -97.5v-1v-2q1 -13 11 -22.5t23.5 -9.5t23.5 9.5t11 22.5v2v0v1z" />
    <glyph glyph-name="uniE602" unicode="&#xe602;" 
d="M610 670q-100 27 -198.5 0t-170.5 -98.5t-99 -172t-0.5 -198.5t98.5 -170.5t172 -98.5q80 -21 155 -9.5t141 50.5l-1 1q20 10 20 32q0 9 -5 17.5t-13.5 13.5t-18.5 5q-11 0 -21 -7q-112 -67 -238 -33q-81 22 -139 80t-79.5 138t0 161t80 139t138 79.5t160.5 0t139.5 -80
t80 -138t-0.5 -160.5q-11 -40 -33 -78q-7 -10 -7 -21q0 -15 10.5 -26t25.5 -11q22 0 32 20l1 -1q28 47 41 98q22 76 9.5 151.5t-47.5 138.5t-96 110.5t-136 67.5zM511 563q-15 0 -25.5 -10.5t-10.5 -25.5v-223v-2v-1q0 -15 10.5 -26t25.5 -11h149q15 0 25.5 11t10.5 26
t-10.5 25.5t-25.5 10.5h-112v190q0 15 -11 25.5t-26 10.5z" />
    <glyph glyph-name="uniE603" unicode="&#xe603;" 
d="M809 321q-18 0 -30.5 -12.5t-12.5 -29.5q0 -1 0.5 -1t0.5 -1h-1v-253q0 -18 -12 -30.5t-30 -12.5h-467q-12 0 -21.5 6t-15.5 15.5t-6 21.5v552q0 18 12.5 30t30.5 12h340q17 0 29.5 12.5t12.5 30.5t-12.5 30t-29.5 12h-361q-44 0 -75.5 -31t-31.5 -75v-594
q0 -29 14.5 -53.5t39 -38.5t53.5 -14h509q44 0 75 31t31 75v274v1v1q0 17 -12 29.5t-30 12.5zM882 650q-13 12 -30.5 12t-29.5 -12l-489 -490q-13 -12 -13 -29.5t12.5 -30t30 -12.5t30.5 12l489 489q12 13 12 30.5t-12 30.5z" />
    <glyph glyph-name="uniE604" unicode="&#xe604;" 
d="M853 339h-483q-9 0 -16 -3.5t-12.5 -8.5t-9 -12.5t-3.5 -15.5q0 -17 12 -29t29 -12h483q17 0 28.5 12t11.5 29q0 28 -26 37q-7 3 -14 3zM370 500h483q8 0 15.5 3t13 8.5t8.5 13t3 15.5q0 17 -11.5 29t-28.5 12h-483q-17 0 -29 -12t-12 -28.5t12 -28.5t29 -12zM853 97
h-483q-5 0 -9.5 -1t-8.5 -3t-7.5 -4.5t-6.5 -6t-4.5 -7.5t-3 -8.5t-1.5 -9.5q0 -17 12 -28.5t29 -11.5h483q17 0 28.5 11.5t11.5 28.5q0 28 -26 38q-7 2 -14 2zM209 581h-41q-16 0 -28 -12t-12 -28.5t12 -28.5t28 -12h41q10 0 19.5 5.5t15 14.5t5.5 20q0 17 -12 29t-28 12z
M209 339h-41q-8 0 -15.5 -3.5t-13 -8.5t-8.5 -12.5t-3 -15.5q0 -17 12 -29t28 -12h41q8 0 15.5 3.5t12.5 8.5t8.5 12.5t3.5 16.5q0 16 -12 28t-28 12zM209 97h-41q-16 0 -28 -11.5t-12 -28.5q0 -8 3 -15.5t8.5 -13t13 -8.5t15.5 -3h41q5 0 10 1t9.5 4t8.5 6.5t6.5 8t4 9.5
t1.5 11q0 17 -12 28.5t-28 11.5z" />
    <glyph glyph-name="uniE605" unicode="&#xe605;" 
d="M619 36q-12 0 -21.5 -8t-11.5 -20h-2q-10 -19 -29 -31.5t-42.5 -12.5t-42.5 12.5t-29 31.5h-2q-2 12 -11 20t-21 8q-8 0 -15 -3.5t-11.5 -10t-5.5 -14.5h-4q2 -6 4 -14q1 -3 3 -6q17 -40 53.5 -64.5t81.5 -24.5q43 0 79 23.5t53 61.5q3 3 4.5 6.5t1.5 7.5q2 6 3 10h-3
q-2 12 -11 20t-21 8zM860 155h-18h-3h-82h-25h-465q5 20 6 30q35 199 98 294.5t143 95.5q139 0 218 -315v5q0 -10 5 -18.5t13.5 -13.5t18.5 -5q15 0 26 11t11 26h1q-34 112 -56 169q-75 189 -202 212v3q0 8 -3 14.5t-7.5 11.5t-11.5 8t-14 3q-10 0 -18.5 -5t-13.5 -13.5
t-5 -18.5v-3q-75 -11 -124.5 -67.5t-83.5 -148.5q-33 -92 -82 -275h-21q-26 0 -35 -24l-2 -13q0 -10 5 -18t13.5 -13t18.5 -5h695q8 0 14.5 3t11.5 7.5t8 11.5t3 14q0 15 -10.5 26t-26.5 11z" />
    <glyph glyph-name="uniE606" unicode="&#xe606;" 
d="M855 214q-16 0 -27 -11.5t-11 -27.5v-76q0 -8 -3 -15t-8 -12t-12 -8t-15 -3h-536q-8 0 -15 3t-12 8t-8 12t-3 15v420q0 16 11 27.5t27 11.5h191q16 0 27.5 11t11.5 27t-11.5 27t-27.5 11h-210q-19 0 -37 -7.5t-30.5 -20t-20.5 -30.5t-8 -37v-459q0 -40 28 -68t68 -28h574
q40 0 68 28t28 68v95q0 16 -11.5 27.5t-27.5 11.5zM588 558h173l-354 -355q-11 -11 -11 -27t11.5 -27.5t27.5 -11.5t27 11l355 355v-174q0 -16 11 -27.5t27 -11.5t27 11.5t11 27.5v265l1 1v1q0 3 -0.5 6t-1.5 6l-2 4q-1 3 -2 5l-4 4q-1 2 -3 4t-5 3q-11 8 -26 7h-262
q-16 0 -27.5 -11.5t-11.5 -27.5q0 -8 3 -15t8.5 -12t12.5 -8t15 -3z" />
    <glyph glyph-name="uniE607" unicode="&#xe607;" 
d="M893 72v38v-39v1zM797 627h-573q-40 0 -68 -28t-28 -68v-459q0 -40 28 -68t68 -28h517q16 1 26.5 12t10.5 27t-12 28l-10 10l-167 166l24 25q8 7 17.5 9.5t19.5 0t17 -9.5l150 -150v-3l2 1l10 -11l1 1q11 -10 25 -10q16 0 27 11t11 27v421q0 40 -28 68t-68 28zM648 53
h-405q-8 0 -15 3t-12 8t-8.5 12t-3.5 15v145l103 103q6 6 13 8.5t14 2.5t14.5 -2.5t12.5 -8.5zM817 202l-109 109q-28 28 -67.5 28t-67.5 -28l-38 -37l-133 133q-28 28 -67.5 28t-67.5 -28l-63 -62v167q0 16 11.5 27t27.5 11h535q7 0 12.5 -2t10.5 -5.5t8.5 -8t5.5 -10.5
t2 -12v-310z" />
    <glyph glyph-name="uniE608" unicode="&#xe608;" 
d="M653 97v303q0 11 -5 20.5t-14.5 15t-20.5 5.5t-20.5 -5.5t-14.5 -15t-5 -20.5v-303q0 -6 2 -12t5.5 -11t8.5 -9t11 -6t13 -2q17 0 28.5 12t11.5 28zM794.5 461q-16.5 0 -28.5 -12t-12 -29v-80v-323q0 -17 -11.5 -29t-28.5 -12h-404q-17 0 -28.5 12t-11.5 29v323v80
q0 17 -12 29t-29 12q-4 0 -8.5 -1t-8.5 -3t-7.5 -5t-6.5 -6.5t-5 -7.5t-3 -8.5t-1 -9.5v-80v-343q0 -42 29.5 -71.5t71.5 -29.5h444q42 0 71.5 29.5t29.5 71.5v343v80q0 17 -12 29t-28.5 12zM855 602h-143q-40 7 -53 25q-3 4 -7 8.5t-7 8t-7 8t-6 7.5q-5 6 -20.5 14.5
t-28.5 8.5h-142q-12 0 -27.5 -8t-19.5 -13q-3 -4 -8.5 -11t-10.5 -12.5t-9 -10.5q-3 -3 -6 -5l-8 -6q-3 -2 -7 -4t-8 -3t-7.5 -2.5t-6.5 -2t-5.5 -1t-3.5 -1.5h-2h-143q-11 0 -20.5 -5.5t-15 -14.5t-5.5 -20t5.5 -20.5t15 -15t20.5 -5.5h173q14 0 30 8.5t22 16.5
q12 14 26 31q21 25 50 25h84q28 0 48 -23q2 -3 4.5 -6t6 -7t5.5 -6.5t6 -7t5 -6.5q7 -8 23 -16.5t30 -8.5h173q11 0 20.5 5.5t15 15t5.5 20.5t-5.5 20t-15 14.5t-20.5 5.5zM451 97v303q0 11 -5 20.5t-14.5 15t-20.5 5.5q-17 0 -28.5 -12t-11.5 -29v-303q0 -16 11.5 -28
t28.5 -12t28.5 12t11.5 28z" />
    <glyph glyph-name="uniE609" unicode="&#xe609;" 
d="M718 579q-38 38 -86 62t-98.5 31.5t-101 0t-98.5 -31.5t-86 -62q-64 -64 -86.5 -149.5t0 -171t86.5 -149t149.5 -86.5t171 0t149.5 86q48 48 72.5 110t24.5 125t-24.5 125t-72.5 110zM663 165q-75 -75 -180 -75t-179.5 74.5t-74.5 179.5t74.5 179.5t179.5 74.5t180 -74
q36 -37 55 -84.5t19 -95.5t-19 -95.5t-55 -83.5zM884 -1l-56 55q-4 5 -9.5 7.5t-11.5 3.5t-12 0t-11.5 -3.5t-10.5 -7.5q-7 -7 -10 -17t0 -20.5t10 -17.5l55 -55q8 -8 18 -10.5t20 0t18 10.5q11 11 11 27t-11 28z" />
    <glyph glyph-name="uniE60A" unicode="&#xe60a;" 
d="M800 682h-579q-39 0 -67 -28t-28 -68v-384q0 -40 28 -68t67 -28h311l134 -136q11 -11 27 -11t27 11t11 27t-11 27l-146 148q-12 13 -31 11h-303q-15 0 -26.5 11.5t-11.5 26.5v344q0 16 11.5 28.5t26.5 12.5h539q11 0 19.5 -6t13.5 -15.5t5 -19.5v-344q0 -7 -3 -14.5
t-8 -12.5t-12 -8t-15 -3h-14h-1q-3 1 -4 1q-16 0 -27.5 -11.5t-11.5 -27.5q0 -11 5.5 -20t14.5 -14t19 -5h1h39q26 0 47.5 13t34.5 35t13 48v384q0 26 -13 48.5t-34.5 35t-47.5 12.5zM462 394q0 -13 6.5 -24t17.5 -17.5t24 -6.5t24 6.5t17.5 17.5t6.5 24t-6.5 24t-17.5 17.5
t-24 6.5q-10 0 -19 -3.5t-15 -10t-10 -15.5t-4 -19zM289 394q0 -20 14 -34t34 -14t34 14t14 34t-14 34t-34 14q-10 0 -18.5 -3.5t-15 -10t-10.5 -15.5t-4 -19zM683 442q-10 0 -19 -3.5t-15 -10t-10 -15.5t-4 -19q0 -20 14 -34t34 -14t34 14t14 34q0 10 -4 19t-10.5 15.5
t-15 10t-18.5 3.5z" />
    <glyph glyph-name="uniE60B" unicode="&#xe60b;" 
d="M796 346h-475h-18v90q0 93 65.5 158.5t158.5 65.5q22 0 43 -4t40.5 -12t37 -19t32.5 -25t27 -30.5t21 -35.5t15 -39l2 -6v-1q4 -13 16 -21.5t26 -8.5q5 0 9.5 1t8 2.5t7.5 4t7 5.5t5.5 7t4 8t2.5 8.5t1 8.5q0 3 -0.5 6t-1.5 7q-17 67 -61 120t-107 83.5t-135 30.5
q-130 0 -222 -92t-92 -222v-99q-30 -14 -49 -41.5t-19 -61.5v-269q0 -31 15.5 -57t41 -41t56.5 -15h538q47 0 79.5 33t32.5 80v269q0 46 -32.5 79t-79.5 33zM819 -13q0 -12 -6 -22.5t-16.5 -16.5t-22.5 -6h-494q-12 0 -22.5 6t-16.5 16.5t-6 22.5v224q0 19 13.5 32t31.5 13
h494q12 0 22.5 -6t16.5 -16t6 -23v-224z" />
    <glyph glyph-name="uniE60C" unicode="&#xe60c;" 
d="M512 -51q0 1 1 1h-2zM887 511q-19 73 -70 107.5t-115 33.5q-51 0 -97 -32t-78 -94q-6 -12 -11 -15.5t-9.5 0t-10.5 15.5q-32 61 -79.5 94t-98.5 32q-64 0 -114 -34.5t-68 -107.5q-7 -23 -7 -85q0 -41 30 -97t71 -106t96.5 -105.5t91.5 -87.5t71 -61v1q10 -9 23 -9
q15 0 25.5 10.5t10.5 25.5q0 8 -3 15t-9 12l-3 2v1h-1l-21 16q-123 106 -215.5 219t-92.5 164v13v12v11q13 118 114 118q32 0 60.5 -24t50.5 -64q36 -67 83.5 -67t84.5 69q21 40 49.5 63t58.5 23q45 0 77.5 -26.5t39.5 -91.5q1 -2 1 -37q0 -28 -30 -77t-78.5 -105.5
t-110.5 -115.5q-4 -5 -6.5 -11.5t-2.5 -13.5q0 -10 5 -18t13.5 -13t17.5 -5q15 0 25 10h1v1q239 226 238 347q-1 63 -7 88z" />
    <glyph glyph-name="uniE60D" unicode="&#xe60d;" 
d="M393 79q-19 0 -32 -13.5t-13 -32.5t13 -32t32 -13t32.5 13t13.5 32t-13.5 32.5t-32.5 13.5zM803 308q38 0 64.5 27t26.5 65v135q0 9 -4.5 17.5t-13 13.5t-18.5 5h-456q-10 0 -18 -5t-13 -13.5t-5 -18t5 -18t13 -13.5t18 -5h310h110v-9v-73q0 -15 -11 -25.5t-26 -10.5
l-68 -8l-325 -39h-2l-7 -1q-5 -1 -10 -3q-4 -2 -11 -5l-88 327q-3 12 -13 20.5t-23 8.5h-73q-15 0 -26 -10.5t-11 -25.5t11 -26t26 -11h45l103 -380q5 -32 30.5 -53.5t58.5 -21.5h456q15 0 25.5 10.5t10.5 25.5q0 10 -4.5 18.5t-13 13.5t-18.5 5h-328h-38h-90q-10 0 -16 10
l-2 8q0 8 5.5 13t12.5 5l87 10l314 38v-1zM812 79q-18 0 -31.5 -13.5t-13.5 -32.5t13.5 -32t32 -13t32 13t13.5 32t-13.5 32.5t-32.5 13.5z" />
    <glyph glyph-name="uniE60E" unicode="&#xe60e;" 
d="M897 271q0 57 -40 97t-97 40h-72q2 12 5 69t3 78v18q0 22 -8.5 42.5t-23.5 35t-35 23t-43 8.5q-45 0 -77 -32t-32 -77v-18q0 -34 -13 -64.5t-35 -52.5t-52.5 -35t-64.5 -13h-146q-15 0 -26 -10.5t-11 -25.5v-402q0 -16 11 -26.5t26 -10.5h146q10 0 18.5 5t13.5 13.5
t5 18.5v368q86 13 143.5 79.5t57.5 155.5v18q0 15 10.5 25.5t25.5 10.5t26 -10.5t11 -25.5v-18q0 -126 -14 -157q-11 -23 3.5 -43t45.5 -20h102v1l1 -1q26 0 44.5 -18.5t18.5 -45.5q0 -11 -5 -23h1l-89 -248q-2 -5 -6.5 -8.5t-10.5 -3.5h-89h-167q-15 0 -25.5 -10.5
t-10.5 -26t10.5 -26t25.5 -10.5h256q19 0 35.5 7t29 19.5t19.5 28.5l92 259q4 10 5.5 20.5t1.5 21.5zM276 -12h-73v329h73v-329z" />
    <glyph glyph-name="uniE60F" unicode="&#xe60f;" 
d="M866 557q-61 127 -143 127q-40 0 -78 -31q-27 -22 -61 -84t-32 -109q0 -14 3.5 -26.5t7.5 -20.5t10.5 -17t10.5 -13l11 -11l6 -6q2 -2 4 -4.5t3 -4.5t3.5 -5t5 -5.5t4 -7t2 -9.5t-2.5 -13t-9 -17.5t-17 -23t-27 -29.5q-18 -18 -31 -28.5t-22.5 -14.5t-14 -5t-12 0
t-10.5 1q-9 0 -21 5q-3 1 -6 4l-9 9q-8 9 -14 14t-17 12.5t-25.5 11.5t-31.5 5h-4q-46 0 -105.5 -32.5t-83.5 -61.5q-40 -49 -28 -99q15 -69 125 -121q47 -23 107 -23q67 0 135.5 20.5t127 55.5t104.5 82q42 42 77.5 98t59 121.5t24 130.5t-25.5 125zM679 134
q-23 -24 -51.5 -45t-60 -37.5t-65 -29t-69 -19t-69.5 -6.5q-43 0 -76 16q-77 37 -85 71v6q0 4 1 7.5t2.5 7t4.5 8t6 8.5q8 10 31.5 25.5t52.5 28.5t48 13q7 0 12.5 -1.5t10.5 -5t8 -6t9 -8.5q6 -7 10 -10.5t12 -9t15 -9.5q27 -12 51 -12q41 0 68.5 12t72.5 56q18 18 31.5 34
t22 30.5t14.5 25t7 22.5t2 18.5t-2 17.5t-4.5 15t-7 15.5t-6.5 14.5q-8 17 -29 38l-9 9q-3 3 -6 7.5t-4.5 9.5t-1.5 12q-1 26 24.5 73t42.5 61q2 1 3.5 2.5t4 3t4.5 2.5t4.5 2.5t4.5 2t4.5 1t5.5 0.5q36 0 77 -86q46 -98 -19 -242q-40 -87 -102 -149z" />
    <glyph glyph-name="uniE610" unicode="&#xe610;" 
d="M356 302l379 -326q10 -10 10 -23t-10 -22.5t-24 -9.5t-24 10l-403 347q-11 10 -10 24q0 5 1 9t3 8t6 7l403 348q10 9 24 9t24 -9q7 -7 9 -15t0 -16t-9 -14z" />
    <glyph glyph-name="uniE611" unicode="&#xe611;" 
d="M701 324l-381 349q-9 10 -22.5 10t-22.5 -10q-5 -4 -7 -10t-2 -12t2 -12t7 -11l358 -329l-358 -328q-6 -6 -8 -14.5t0 -16.5t8 -15q9 -9 22.5 -9t22.5 9l381 350q10 10 10 24q0 15 -10 25z" />
  </font>
</defs>
</svg>
